<svg width="494" height="379" viewBox="0 0 494 379" fill="none" xmlns="http://www.w3.org/2000/svg">
<g clip-path="url(#clip0_83_731)">
<path d="M452.251 162.497C447.385 143.669 439.9 125.727 429.794 109.174C412.079 80.1112 380.764 36.0121 345.208 18.8274C290.314 -7.70785 240.41 -8.97144 195.497 32.7268C150.584 74.4251 123.137 193.202 106.918 213.419C90.6997 233.637 42.0437 237.427 23.3299 269.017C4.61608 300.607 10.4797 375.158 10.4797 375.158H477.452C477.452 375.158 483.94 285.696 452.251 162.497Z" fill="#C6FF00"/>
<path opacity="0.8" d="M452.251 162.497C447.385 143.669 439.9 125.727 429.794 109.174C412.079 80.1112 380.764 36.0121 345.208 18.8274C290.314 -7.70785 240.41 -8.97144 195.497 32.7268C150.584 74.4251 123.137 193.202 106.918 213.419C90.6997 233.637 42.0437 237.427 23.3299 269.017C4.61608 300.607 10.4797 375.158 10.4797 375.158H477.452C477.452 375.158 483.94 285.696 452.251 162.497Z" fill="white"/>
<path d="M413.825 117.134C408.211 114.102 405.716 116.629 403.72 114.102C401.724 111.574 409.334 104.877 394.113 98.1804C394.113 98.1804 393.115 83.7756 372.405 83.2701C351.695 82.7647 357.185 97.675 351.695 101.213C346.081 104.751 344.584 99.1913 339.095 102.729C333.48 106.267 336.1 113.47 331.484 114.481C326.993 115.492 320.88 109.932 315.266 113.47C309.652 117.008 309.652 120.167 307.156 120.167C304.661 120.167 299.546 118.145 296.552 120.167C293.558 122.189 289.94 124.716 289.94 124.716H417.942C417.817 124.842 419.439 120.293 413.825 117.134Z" fill="white"/>
<path opacity="0.5" d="M413.825 117.134C408.211 114.102 405.716 116.629 403.72 114.102C401.724 111.574 409.334 104.877 394.113 98.1804C394.113 98.1804 393.115 83.7756 372.405 83.2701C351.695 82.7647 357.185 97.675 351.695 101.213C346.081 104.751 344.584 99.1913 339.095 102.729C333.48 106.267 336.1 113.47 331.484 114.481C326.993 115.492 320.88 109.932 315.266 113.47C309.652 117.008 309.652 120.167 307.156 120.167C304.661 120.167 299.546 118.145 296.552 120.167C293.558 122.189 289.94 124.716 289.94 124.716H417.942C417.817 124.842 419.439 120.293 413.825 117.134Z" fill="white"/>
<path d="M261.245 39.0447C258.001 37.2757 256.504 38.792 255.257 37.2757C254.009 35.7594 258.5 31.8423 249.518 27.9252C249.518 27.9252 248.894 19.4592 236.668 19.0801C224.316 18.8274 227.685 27.5461 224.316 29.6942C221.073 31.8423 220.075 28.4306 216.831 30.5787C213.587 32.7268 215.084 36.8966 212.34 37.5284C209.595 38.1602 206.102 34.7486 202.733 36.8966C199.489 39.0447 199.489 40.8138 197.992 40.8138C196.495 40.8138 193.501 39.5502 191.754 40.8138C190.008 42.0773 187.887 43.5936 187.887 43.5936H263.74C263.616 43.5936 264.489 40.8138 261.245 39.0447Z" fill="white"/>
<path opacity="0.5" d="M261.245 39.0447C258.001 37.2757 256.504 38.792 255.257 37.2757C254.009 35.7594 258.5 31.8423 249.518 27.9252C249.518 27.9252 248.894 19.4592 236.668 19.0801C224.316 18.8274 227.685 27.5461 224.316 29.6942C221.073 31.8423 220.075 28.4306 216.831 30.5787C213.587 32.7268 215.084 36.8966 212.34 37.5284C209.595 38.1602 206.102 34.7486 202.733 36.8966C199.489 39.0447 199.489 40.8138 197.992 40.8138C196.495 40.8138 193.501 39.5502 191.754 40.8138C190.008 42.0773 187.887 43.5936 187.887 43.5936H263.74C263.616 43.5936 264.489 40.8138 261.245 39.0447Z" fill="white"/>
<path d="M222.695 169.699C219.451 167.93 217.954 169.447 216.706 167.93C215.459 166.414 219.95 162.497 210.967 158.58C210.967 158.58 210.343 150.114 198.117 149.735C185.766 149.482 189.134 158.201 185.766 160.349C182.522 162.497 181.524 159.085 178.28 161.233C175.037 163.381 176.534 167.551 173.789 168.183C171.044 168.815 167.551 165.403 164.183 167.551C160.939 169.699 160.939 171.468 159.442 171.468C157.945 171.468 154.951 170.205 153.204 171.468C151.457 172.732 149.336 174.248 149.336 174.248H225.19C225.065 174.248 226.063 171.595 222.695 169.699Z" fill="white"/>
<path opacity="0.5" d="M222.695 169.699C219.451 167.93 217.954 169.447 216.706 167.93C215.459 166.414 219.95 162.497 210.967 158.58C210.967 158.58 210.343 150.114 198.117 149.735C185.766 149.482 189.134 158.201 185.766 160.349C182.522 162.497 181.524 159.085 178.28 161.233C175.037 163.381 176.534 167.551 173.789 168.183C171.044 168.815 167.551 165.403 164.183 167.551C160.939 169.699 160.939 171.468 159.442 171.468C157.945 171.468 154.951 170.205 153.204 171.468C151.457 172.732 149.336 174.248 149.336 174.248H225.19C225.065 174.248 226.063 171.595 222.695 169.699Z" fill="white"/>
<path d="M15.2206 374.779L165.056 183.851C168.674 179.302 175.536 179.302 179.029 184.104L272.349 310.336L359.68 165.529C363.173 159.591 371.781 159.843 375.025 165.909L487.059 373.768L15.2206 374.779Z" fill="#C6FF00"/>
<path opacity="0.5" d="M15.2206 374.779L165.056 183.851C168.674 179.302 175.536 179.302 179.029 184.104L272.349 310.336L359.68 165.529C363.173 159.591 371.781 159.843 375.025 165.909L487.059 373.768L15.2206 374.779Z" fill="white"/>
<mask id="mask0_83_731" style="mask-type:luminance" maskUnits="userSpaceOnUse" x="15" y="161" width="473" height="214">
<path d="M15.2206 374.779L165.056 183.851C168.674 179.302 175.536 179.302 179.029 184.104L272.349 310.336L359.68 165.529C363.173 159.591 371.781 159.843 375.025 165.909L487.059 373.768L15.2206 374.779Z" fill="white"/>
</mask>
<g mask="url(#mask0_83_731)">
<g opacity="0.2">
<path d="M175.286 181.198L225.938 374.4L320.63 374.273L179.154 184.104C178.156 182.714 176.783 181.703 175.286 181.198Z" fill="black"/>
<path d="M375.15 166.035C373.279 162.623 369.91 161.107 366.542 161.36L440.399 373.894L487.183 373.768L375.15 166.035Z" fill="black"/>
</g>
</g>
<mask id="mask1_83_731" style="mask-type:luminance" maskUnits="userSpaceOnUse" x="15" y="161" width="473" height="214">
<path d="M15.2206 374.779L165.056 183.851C168.674 179.302 175.536 179.302 179.029 184.104L272.349 310.336L359.68 165.529C363.173 159.591 371.781 159.843 375.025 165.909L487.059 373.768L15.2206 374.779Z" fill="white"/>
</mask>
<g mask="url(#mask1_83_731)">
<path opacity="0.2" d="M109.039 373.642L114.778 340.915L93.9434 373.642H109.039Z" fill="black"/>
</g>
<path d="M376.398 374.273H440.648C439.401 366.313 434.41 367.703 433.662 355.32C433.288 349.128 439.027 341.42 438.527 333.207C438.153 326.51 431.541 319.56 431.042 311.852C430.543 304.903 436.157 297.195 435.658 289.74C435.159 282.664 428.547 275.84 427.923 268.512C427.299 261.309 432.789 253.601 432.165 246.272C431.541 239.07 424.804 232.373 424.055 225.171C423.307 217.842 428.672 209.881 427.798 202.932C426.925 195.476 419.938 189.032 419.065 182.082C418.067 174.375 422.933 166.288 421.81 159.591C420.437 151.504 412.952 145.565 411.33 139.626C408.461 128.506 408.835 117.766 405.342 117.008C401.599 116.25 400.85 126.737 397.981 138.489C396.608 144.428 389.248 150.366 388.125 158.453C387.127 165.024 392.242 172.985 391.493 180.566C390.745 187.389 384.008 193.96 383.259 201.415C382.636 208.365 388.125 216.073 387.626 223.402C387.127 230.478 380.515 237.301 380.016 244.503C379.517 251.706 385.255 259.287 384.881 266.363C384.507 273.692 378.019 280.516 377.645 287.592C377.271 295.047 383.135 302.502 382.76 309.452C382.511 317.033 376.023 324.109 375.898 330.806C375.649 338.893 381.513 346.348 381.263 352.54C380.889 365.934 374.776 363.154 374.651 373.894L376.398 374.273Z" fill="#BAEF00"/>
<path d="M403.969 138.741V371.241" stroke="#263238" stroke-miterlimit="10"/>
<path d="M413.95 163.129L403.47 172.226L394.987 160.728" fill="#BAEF00"/>
<path d="M413.95 163.129L403.47 172.226L394.987 160.728" stroke="#263238" stroke-miterlimit="10"/>
<path d="M413.95 203.563L403.47 212.661L394.987 201.163" fill="#BAEF00"/>
<path d="M413.95 203.563L403.47 212.661L394.987 201.163" stroke="#263238" stroke-miterlimit="10"/>
<path d="M413.95 241.597L403.47 250.821L394.987 239.196" fill="#BAEF00"/>
<path d="M413.95 241.597L403.47 250.821L394.987 239.196" stroke="#263238" stroke-miterlimit="10"/>
<path d="M413.95 286.96L403.47 296.058L394.987 284.559" fill="#BAEF00"/>
<path d="M413.95 286.96L403.47 296.058L394.987 284.559" stroke="#263238" stroke-miterlimit="10"/>
<path d="M413.95 332.702L403.47 341.799L394.987 330.301" fill="#BAEF00"/>
<path d="M413.95 332.702L403.47 341.799L394.987 330.301" stroke="#263238" stroke-miterlimit="10"/>
<path d="M308.778 374.273H364.545C363.423 367.324 359.056 368.587 358.557 357.847C358.307 352.413 363.173 345.843 362.799 338.767C362.425 332.954 356.81 327.015 356.311 320.318C355.937 314.253 360.803 307.556 360.304 301.112C359.805 294.92 354.066 289.108 353.567 282.664C353.068 276.472 357.808 269.649 357.309 263.457C356.81 257.139 350.947 251.327 350.323 245.135C349.699 238.817 354.315 231.868 353.567 225.802C352.818 219.358 346.83 213.798 345.956 207.733C345.083 201.036 349.325 193.96 348.327 188.274C347.079 181.198 340.592 176.144 339.344 170.963C336.849 161.36 337.098 152.009 334.104 151.377C330.861 150.746 330.237 159.843 327.742 170.078C326.494 175.259 320.256 180.44 319.133 187.389C318.26 193.076 322.751 200.025 322.003 206.596C321.379 212.535 315.515 218.221 314.891 224.665C314.392 230.73 319.133 237.427 318.634 243.745C318.135 249.937 312.521 255.749 312.022 262.067C311.648 268.259 316.513 274.829 316.264 281.021C315.889 287.339 310.275 293.278 310.026 299.469C309.776 305.914 314.767 312.358 314.517 318.423C314.268 324.994 308.778 331.059 308.529 336.871C308.279 343.947 313.394 350.392 313.27 355.699C312.895 367.324 307.655 364.923 307.531 374.273H308.778Z" fill="#BAEF00"/>
<path d="M332.607 169.952V371.62" stroke="#263238" stroke-miterlimit="10"/>
<path d="M341.34 191.18L332.233 199.014L324.872 189.032" fill="#BAEF00"/>
<path d="M341.34 191.18L332.233 199.014L324.872 189.032" stroke="#263238" stroke-miterlimit="10"/>
<path d="M341.34 226.181L332.233 234.142L324.872 224.16" fill="#BAEF00"/>
<path d="M341.34 226.181L332.233 234.142L324.872 224.16" stroke="#263238" stroke-miterlimit="10"/>
<path d="M341.34 259.287L332.233 267.248L324.872 257.139" fill="#BAEF00"/>
<path d="M341.34 259.287L332.233 267.248L324.872 257.139" stroke="#263238" stroke-miterlimit="10"/>
<path d="M341.34 298.585L332.233 306.419L324.872 296.437" fill="#BAEF00"/>
<path d="M341.34 298.585L332.233 306.419L324.872 296.437" stroke="#263238" stroke-miterlimit="10"/>
<path d="M341.34 338.261L332.233 346.222L324.872 336.113" fill="#BAEF00"/>
<path d="M341.34 338.261L332.233 346.222L324.872 336.113" stroke="#263238" stroke-miterlimit="10"/>
<path d="M32.063 374.273H87.8303C86.7074 367.324 82.3409 368.587 81.8418 357.847C81.5923 352.413 86.4579 345.843 86.0836 338.767C85.7094 332.954 80.0952 327.015 79.5962 320.318C79.2219 314.253 84.0875 307.556 83.5884 301.112C83.0894 294.92 77.3505 289.108 76.8515 282.664C76.3524 276.472 81.0933 269.649 80.5942 263.457C80.0952 257.139 74.2315 251.327 73.6077 245.135C72.9839 238.817 77.6 231.868 76.8515 225.802C76.1029 219.358 70.1145 213.798 69.2412 207.733C68.3679 201.036 72.6097 193.96 71.6116 188.274C70.364 181.198 63.8765 176.144 62.629 170.963C60.1338 161.36 60.3833 152.009 57.3891 151.377C54.1454 150.746 53.5216 159.843 51.0264 170.078C49.7788 175.259 43.5408 180.44 42.418 187.389C41.5447 193.076 46.036 200.025 45.2875 206.596C44.6637 212.535 38.8 218.221 38.1762 224.665C37.6772 230.73 42.418 237.427 41.919 243.745C41.4199 249.937 35.8058 255.749 35.3068 262.067C34.9325 268.259 39.7981 274.829 39.5486 281.021C39.1743 287.339 33.5601 293.278 33.3106 299.469C33.0611 305.914 38.0515 312.358 37.8019 318.423C37.5524 324.994 32.063 331.059 31.8135 336.871C31.564 343.947 36.6791 350.392 36.5544 355.699C36.1801 367.324 30.9402 364.923 30.8154 374.273H32.063Z" fill="#BAEF00"/>
<path d="M56.0167 169.952V371.62" stroke="#263238" stroke-miterlimit="10"/>
<path d="M64.7499 191.18L55.6425 199.014L48.1569 189.032" stroke="#263238" stroke-miterlimit="10"/>
<path d="M64.7499 226.181L55.6425 234.142L48.1569 224.16" stroke="#263238" stroke-miterlimit="10"/>
<path d="M64.7499 259.287L55.6425 267.248L48.1569 257.139" stroke="#263238" stroke-miterlimit="10"/>
<path d="M64.7499 298.585L55.6425 306.419L48.1569 296.437" stroke="#263238" stroke-miterlimit="10"/>
<path d="M64.7499 338.261L55.6425 346.222L48.1569 336.113" stroke="#263238" stroke-miterlimit="10"/>
<path d="M333.32 373.898C359.093 367.842 375.139 341.771 369.159 315.667C363.18 289.564 337.439 273.312 311.665 279.368C285.892 285.425 269.846 311.495 275.826 337.599C281.806 363.703 307.546 379.954 333.32 373.898Z" fill="#263238"/>
<path d="M338.448 366.59C360.23 357.67 370.75 332.555 361.944 310.493C353.138 288.431 328.34 277.776 306.557 286.695C284.775 295.614 274.255 320.73 283.061 342.792C291.867 364.854 316.665 375.509 338.448 366.59Z" fill="white"/>
<path d="M322.502 364.165C337.722 364.165 350.697 354.941 356.436 341.673" stroke="#263238" stroke-miterlimit="10" stroke-linecap="round" stroke-linejoin="round"/>
<path d="M322.502 288.982C308.529 288.982 296.427 296.689 290.064 308.188" stroke="#263238" stroke-miterlimit="10" stroke-linecap="round" stroke-linejoin="round"/>
<path d="M322.502 292.772C309.901 292.772 299.047 299.722 293.308 310.083" stroke="#263238" stroke-miterlimit="10" stroke-linecap="round" stroke-linejoin="round"/>
<path d="M321.878 360.374C322.127 360.374 322.252 360.374 322.502 360.374C336.225 360.374 347.953 352.034 353.192 340.03" stroke="#263238" stroke-miterlimit="10" stroke-linecap="round" stroke-linejoin="round"/>
<path d="M322.502 296.942C311.523 296.942 301.916 303.134 296.926 312.231" stroke="#263238" stroke-miterlimit="10" stroke-linecap="round" stroke-linejoin="round"/>
<path d="M322.502 356.204C334.354 356.204 344.709 349.002 349.2 338.64" stroke="#263238" stroke-miterlimit="10" stroke-linecap="round" stroke-linejoin="round"/>
<path d="M322.502 301.617C313.27 301.617 305.16 306.798 300.918 314.38" stroke="#263238" stroke-miterlimit="10" stroke-linecap="round" stroke-linejoin="round"/>
<path d="M322.502 351.655C332.358 351.655 340.841 345.843 344.834 337.25" stroke="#263238" stroke-miterlimit="10" stroke-linecap="round" stroke-linejoin="round"/>
<path d="M204.57 360.952C223.279 342.003 223.279 311.281 204.57 292.333C185.862 273.384 155.529 273.384 136.82 292.333C118.111 311.281 118.111 342.003 136.82 360.952C155.529 379.9 185.862 379.9 204.57 360.952Z" fill="#263238"/>
<path d="M209.881 343.483C219.063 321.578 208.974 296.281 187.346 286.982C165.719 277.682 140.742 287.9 131.56 309.805C122.378 331.711 132.467 357.007 154.095 366.307C175.723 375.607 200.699 365.388 209.881 343.483Z" fill="white"/>
<path d="M170.67 364.165C185.891 364.165 198.866 354.941 204.605 341.673" stroke="#263238" stroke-miterlimit="10" stroke-linecap="round" stroke-linejoin="round"/>
<path d="M170.67 288.982C156.697 288.982 144.596 296.689 138.233 308.188" stroke="#263238" stroke-miterlimit="10" stroke-linecap="round" stroke-linejoin="round"/>
<path d="M170.67 292.772C158.07 292.772 147.215 299.722 141.477 310.083" stroke="#263238" stroke-miterlimit="10" stroke-linecap="round" stroke-linejoin="round"/>
<path d="M170.046 360.374C170.296 360.374 170.421 360.374 170.67 360.374C184.394 360.374 196.121 352.034 201.361 340.03" stroke="#263238" stroke-miterlimit="10" stroke-linecap="round" stroke-linejoin="round"/>
<path d="M170.67 296.942C159.691 296.942 150.085 303.134 145.095 312.231" stroke="#263238" stroke-miterlimit="10" stroke-linecap="round" stroke-linejoin="round"/>
<path d="M170.67 356.204C182.522 356.204 192.877 349.002 197.369 338.64" stroke="#263238" stroke-miterlimit="10" stroke-linecap="round" stroke-linejoin="round"/>
<path d="M170.67 301.617C161.438 301.617 153.329 306.798 149.087 314.38" stroke="#263238" stroke-miterlimit="10" stroke-linecap="round" stroke-linejoin="round"/>
<path d="M170.67 351.655C180.526 351.655 189.01 345.843 193.002 337.25" stroke="#263238" stroke-miterlimit="10" stroke-linecap="round" stroke-linejoin="round"/>
<path d="M283.951 166.414L278.212 140.51C278.212 140.51 271.351 137.983 265.861 141.016C261.37 143.543 245.525 165.909 240.161 173.616C239.911 173.364 239.787 173.237 239.787 173.237C239.787 173.237 239.163 172.226 238.414 173.237C238.414 173.237 234.671 176.649 234.796 177.786C234.796 178.039 235.42 178.797 236.169 179.808L205.353 211.398C205.353 211.398 196.994 211.524 195.497 212.282C194 213.04 194 213.167 194 216.073C194 218.853 194.374 221.506 194.873 221.633C195.372 221.759 198.741 222.517 199.115 221.506C199.489 220.369 198.242 218.347 198.242 218.347C198.242 218.347 199.115 215.946 200.987 216.705C202.858 217.463 204.355 219.864 206.725 218.979C209.096 218.095 211.217 214.051 211.217 214.051L244.527 189.032C245.525 190.043 246.274 190.801 246.524 190.927C247.771 191.686 251.888 188.527 251.763 187.01V186.884L283.951 166.414Z" fill="#263238"/>
<path d="M204.48 234.016C203.856 234.016 203.357 233.763 203.107 233.131L195.372 219.358C194.873 218.6 195.248 217.589 195.996 217.084C196.745 216.578 197.743 216.957 198.242 217.715L205.977 231.489C206.476 232.247 206.102 233.258 205.353 233.763C204.979 233.889 204.729 234.016 204.48 234.016Z" fill="white" stroke="#263238" stroke-miterlimit="10" stroke-linecap="round" stroke-linejoin="round"/>
<path d="M232.675 178.292L200.737 211.145C200.737 211.145 192.378 211.271 190.881 212.029C189.384 212.787 189.384 212.914 189.384 215.82C189.384 218.6 189.758 221.253 190.257 221.38C190.756 221.506 194.125 222.264 194.499 221.253C194.873 220.116 193.626 218.095 193.626 218.095C193.626 218.095 194.499 215.694 196.37 216.452C198.242 217.21 199.739 219.611 202.109 218.726C204.48 217.842 206.601 213.798 206.601 213.798L241.284 187.769L232.675 178.292Z" fill="white" stroke="#263238" stroke-miterlimit="10" stroke-linecap="round" stroke-linejoin="round"/>
<path d="M200.612 218.221C200.612 216.073 198.866 214.304 196.745 214.304C194.624 214.304 192.877 216.073 192.877 218.221C192.877 220.369 194.624 222.138 196.745 222.138C198.866 222.012 200.612 220.369 200.612 218.221Z" fill="#263238"/>
<path d="M301.043 221.759C301.043 221.759 296.053 224.286 290.064 224.791C284.076 225.297 279.959 224.539 281.331 228.961C282.704 233.384 292.061 234.268 298.922 232.626C305.784 230.983 309.028 228.456 308.279 224.033C307.281 219.484 303.164 220.874 301.043 221.759Z" fill="#263238"/>
<path d="M279.335 212.029C279.335 212.029 237.042 243.745 235.919 250.442C234.796 257.139 242.531 307.683 242.531 307.683L249.143 309.957C249.143 309.957 252.761 264.847 256.255 256.255C259.873 247.662 295.304 227.319 296.053 217.084C296.926 206.722 288.068 206.722 279.335 212.029Z" fill="#263238"/>
<path d="M242.531 307.683C242.531 307.683 239.787 308.567 236.169 308.82C232.551 309.073 227.685 307.177 227.685 308.567C227.685 309.957 233.673 315.264 236.792 315.517C239.787 315.77 243.654 316.022 243.654 316.022L243.779 318.17L247.771 319.308L249.143 309.831L242.531 307.683Z" fill="#263238"/>
<path d="M243.8 318.207L230.777 311.529L228.917 315.25L241.94 321.928L243.8 318.207Z" fill="white" stroke="#263238" stroke-miterlimit="10" stroke-linecap="round" stroke-linejoin="round"/>
<path d="M236.293 316.654L253.011 328.279L254.633 324.236L236.792 315.517L236.293 316.654Z" fill="white" stroke="#263238" stroke-miterlimit="10" stroke-linecap="round" stroke-linejoin="round"/>
<path d="M323.375 323.856L289.94 238.691C289.815 238.438 289.69 238.312 289.565 238.059L291.312 233.384C291.686 232.499 291.187 231.615 290.314 231.236C289.441 230.857 288.567 231.362 288.193 232.247L284.325 242.608H203.856C205.353 236.669 205.977 233.005 206.102 232.878C206.226 231.994 205.727 231.109 204.854 230.857C203.981 230.73 203.107 231.236 202.858 232.12C202.733 232.626 191.38 288.855 169.298 325.878C168.799 326.636 169.048 327.647 169.797 328.153C170.046 328.279 170.296 328.405 170.67 328.405C171.169 328.405 171.793 328.153 172.042 327.647C183.77 307.935 192.503 283.043 198.117 263.71L252.761 329.164C252.886 329.416 253.011 329.669 253.136 329.922C253.76 330.806 254.758 331.312 255.756 331.312H255.88L320.381 328.532C321.379 328.532 322.377 327.9 323.001 327.015C323.749 326.005 323.749 324.867 323.375 323.856ZM202.983 245.767H283.078L253.635 324.741L199.365 259.666C200.862 254.486 201.985 249.81 202.983 245.767ZM255.88 327.9L287.819 242.482L320.256 325.12L255.88 327.9Z" fill="white" stroke="#263238" stroke-miterlimit="10" stroke-linecap="round" stroke-linejoin="round"/>
<path d="M208.223 232.373C208.223 230.225 206.476 228.456 204.355 228.456C202.234 228.456 200.488 230.225 200.488 232.373C200.488 234.521 202.234 236.29 204.355 236.29C206.601 236.164 208.223 234.521 208.223 232.373Z" fill="white" stroke="#263238" stroke-miterlimit="10" stroke-linecap="round" stroke-linejoin="round"/>
<path d="M176.16 326.636C176.16 323.604 173.789 321.077 170.67 321.077C167.551 321.077 165.181 323.477 165.181 326.636C165.181 329.669 167.551 332.196 170.67 332.196C173.789 332.196 176.16 329.669 176.16 326.636Z" fill="#263238"/>
<path d="M327.243 326.636C327.243 323.604 324.872 321.077 321.753 321.077C318.759 321.077 316.264 323.477 316.264 326.636C316.264 329.669 318.634 332.196 321.753 332.196C324.872 332.07 327.243 329.669 327.243 326.636Z" fill="#263238"/>
<path d="M266.111 326.636C266.111 320.318 261.12 315.264 254.882 315.264C248.644 315.264 243.654 320.318 243.654 326.636C243.654 332.954 248.644 338.009 254.882 338.009C261.12 338.009 266.111 332.828 266.111 326.636Z" fill="#263238"/>
<path d="M271.974 328.784L254.633 324.109C253.261 323.73 251.888 324.615 251.514 325.878C251.14 327.394 252.138 328.911 253.635 329.037L273.097 331.691L271.974 328.784Z" fill="white" stroke="#263238" stroke-miterlimit="10" stroke-linecap="round" stroke-linejoin="round"/>
<path d="M279.325 321.818L269.507 332.758L272.553 335.563L282.371 324.622L279.325 321.818Z" fill="white" stroke="#263238" stroke-miterlimit="10" stroke-linecap="round" stroke-linejoin="round"/>
<path d="M279.086 210.892C279.086 210.892 245.9 241.976 244.278 250.569C242.656 259.161 276.341 314.885 276.341 314.885L282.953 312.611C282.953 312.611 263.99 263.71 266.485 260.046C268.98 256.381 313.27 226.055 319.882 215.82C326.494 205.585 322.751 195.224 317.761 190.548C312.77 185.873 279.086 210.892 279.086 210.892Z" fill="#263238"/>
<path d="M257.128 250.569L266.36 260.046L261.744 248.547" stroke="white" stroke-width="0.75" stroke-miterlimit="10" stroke-linecap="round" stroke-linejoin="round"/>
<path d="M250.641 269.27C250.641 269.27 243.904 252.59 245.9 247.41C247.896 242.229 280.957 216.957 280.957 216.957C280.957 216.957 297.425 211.271 308.653 213.546" stroke="white" stroke-width="0.75" stroke-miterlimit="10" stroke-linecap="round" stroke-linejoin="round"/>
<path d="M299.546 210.513C299.546 210.513 305.285 207.733 313.769 210.892" stroke="white" stroke-width="0.75" stroke-miterlimit="10" stroke-linecap="round" stroke-linejoin="round"/>
<path d="M276.341 314.885C276.341 314.885 273.347 318.17 270.352 321.329C267.358 324.362 263.491 325.246 264.863 326.005C266.235 326.889 268.481 327.647 272.598 326.257C276.715 324.867 281.955 320.192 281.955 320.192L282.828 321.582L287.444 319.055L283.078 312.611L276.341 314.885Z" fill="#263238"/>
<path d="M259.498 100.202C255.381 95.7796 248.021 93.1261 242.032 94.137C236.169 95.2742 234.547 103.235 233.424 108.163L232.426 112.585L232.551 115.997L230.679 123.199C230.43 124.084 231.053 125.095 232.052 125.221L234.172 125.474C234.547 127.875 236.917 132.55 237.167 134.193C238.414 140.51 242.531 140.131 245.151 139.121C246.274 138.741 248.145 137.478 249.892 135.962L256.13 141.269L267.234 129.012L262.493 122.062C262.493 122.062 263.865 104.877 259.498 100.202Z" fill="white" stroke="#263238" stroke-miterlimit="10" stroke-linecap="round" stroke-linejoin="round"/>
<path d="M236.792 117.766C236.917 118.777 236.792 119.661 236.418 119.661C236.044 119.788 235.545 119.03 235.42 118.019C235.295 117.008 235.42 116.123 235.794 116.123C236.169 115.997 236.668 116.755 236.792 117.766Z" fill="#263238"/>
<path d="M233.798 113.849C233.798 113.849 236.418 111.574 238.414 114.481" stroke="#263238" stroke-miterlimit="10" stroke-linecap="round" stroke-linejoin="round"/>
<path d="M243.155 106.773C243.155 106.773 239.787 110.816 241.034 112.206C242.282 113.723 246.399 117.008 246.399 117.008C246.399 117.008 249.268 111.701 253.51 113.849C257.627 115.997 254.383 121.051 255.756 123.073C257.253 125.221 262.243 122.062 262.617 120.925C262.992 119.914 270.477 104.498 270.976 98.8122C271.351 93.1261 256.005 87.44 249.393 86.1764C242.781 84.9128 237.79 87.8191 239.038 86.5555C240.286 85.2919 242.407 81.8802 238.414 81.5012C234.422 81.1221 229.307 87.1873 229.307 90.7253C229.307 94.2633 232.8 94.5161 232.8 94.5161C232.8 94.5161 222.819 91.9889 225.564 97.9277C228.309 103.867 232.8 103.614 237.042 103.867C241.034 104.246 243.155 106.773 243.155 106.773Z" fill="#263238"/>
<path d="M250.765 114.607H250.641C250.017 114.481 249.518 113.849 249.518 113.217L251.015 100.202C251.14 99.5704 251.639 99.0649 252.387 99.0649C253.011 99.1913 253.51 99.8231 253.51 100.455L252.013 113.47C252.013 114.102 251.389 114.607 250.765 114.607Z" fill="white" stroke="#263238" stroke-miterlimit="10"/>
<path d="M250.266 126.864C247.147 126.864 244.527 124.21 244.527 121.051V115.618C244.527 112.459 247.147 109.805 250.266 109.805C253.385 109.805 256.005 112.459 256.005 115.618V121.051C256.005 124.21 253.385 126.864 250.266 126.864Z" fill="white" stroke="#263238" stroke-miterlimit="10"/>
<path d="M251.639 87.3136L249.767 100.708C249.518 102.098 250.516 103.487 252.013 103.614H252.138C253.51 103.74 254.758 102.729 255.007 101.339L256.629 87.8191C256.754 86.4291 255.88 85.1655 254.383 84.9128C253.136 85.0392 251.888 85.9237 251.639 87.3136Z" fill="white" stroke="#263238" stroke-miterlimit="10"/>
<path d="M268.855 124.084C268.855 124.084 248.894 142.406 249.143 145.438C249.393 148.471 248.769 162.118 256.255 177.407C263.616 192.696 272.598 205.585 275.842 211.398C279.086 217.21 288.692 212.914 288.692 212.914C288.692 212.914 308.903 205.711 315.515 199.393C322.127 192.949 315.515 181.324 315.515 181.324C315.515 181.324 291.187 146.07 283.203 137.352C275.218 128.759 268.855 124.084 268.855 124.084Z" fill="#BAEF00" stroke="#263238" stroke-miterlimit="10" stroke-linecap="round" stroke-linejoin="round"/>
<path d="M248.769 148.092C248.769 148.092 252.886 144.428 256.13 141.395C259.374 138.362 276.091 134.951 280.208 135.835C284.326 136.72 285.448 140.51 286.197 140.258C287.07 140.005 287.444 134.572 283.078 127.243C278.711 119.914 272.099 116.755 268.481 119.03C264.988 121.304 256.255 132.55 252.512 137.099C248.769 141.774 247.272 144.428 248.769 148.092Z" fill="#BAEF00" stroke="#263238" stroke-miterlimit="10" stroke-linecap="round" stroke-linejoin="round"/>
<path d="M267.109 172.226C267.109 172.226 280.458 173.364 289.815 171.468" stroke="#263238" stroke-miterlimit="10" stroke-linecap="round" stroke-linejoin="round"/>
<path d="M261.869 173.364C261.869 173.364 274.47 181.324 287.569 182.082" stroke="#263238" stroke-miterlimit="10" stroke-linecap="round" stroke-linejoin="round"/>
<path d="M273.596 140.005C273.596 140.005 266.734 137.478 261.245 140.51C255.756 143.543 233.673 175.764 233.673 175.764L244.902 187.895L279.335 165.782" fill="#BAEF00"/>
<path d="M273.596 140.005C273.596 140.005 266.734 137.478 261.245 140.51C255.756 143.543 233.673 175.764 233.673 175.764L244.902 187.895L279.335 165.782" stroke="#263238" stroke-miterlimit="10" stroke-linecap="round" stroke-linejoin="round"/>
<path d="M233.673 172.858C233.673 172.858 229.931 176.27 230.055 177.407C230.18 178.544 240.66 189.917 241.907 190.675C243.155 191.433 247.272 188.274 247.147 186.758C247.023 185.241 235.046 172.985 235.046 172.985C235.046 172.985 234.422 171.847 233.673 172.858Z" fill="#C6FF00" stroke="#263238" stroke-miterlimit="10" stroke-linecap="round" stroke-linejoin="round"/>
<path d="M2.61994 378.317H490.926C492.423 378.317 493.546 377.053 493.546 375.663C493.546 374.147 492.423 373.01 490.926 373.01H2.61994C1.12283 373.01 0 374.273 0 375.663C0 377.18 1.12283 378.317 2.61994 378.317Z" fill="#263238"/>
</g>
<defs>
<clipPath id="clip0_83_731">
<rect width="493.671" height="378.317" fill="white"/>
</clipPath>
</defs>
</svg>
